<svg preserveAspectRatio="none" width="100%" height="100%" overflow="visible" style="display: block;" viewBox="0 0 20 15.5009" fill="none" xmlns="http://www.w3.org/2000/svg">
<g id="elements">
<path id="Vector" d="M0 2.75093H3.90812L4.80255 1.75098C5.53643 0.836582 6.62195 0.517291 7.60655 0.926221L9.5 1.75098M0 11.7177H4L5.97971 12.9937C7.86787 14.2105 8.81195 14.819 9.84068 14.7449C9.88918 14.7414 9.93758 14.7368 9.98585 14.731C11.0096 14.6086 11.8119 13.833 13.4166 12.2817L15 10.7509" stroke="var(--stroke-0, black)" style="stroke:black;stroke-opacity:1;" stroke-width="1.5" stroke-linejoin="round"/>
<path id="Vector 4917" d="M17 2.98465L16.5521 3.5862C16.6815 3.68259 16.8386 3.73465 17 3.73465V2.98465ZM9.31704 1.99724L8.77302 1.48097V1.48097L9.31704 1.99724ZM7.44309 3.97192L6.89906 3.45565C6.89339 3.46162 6.88782 3.46769 6.88236 3.47385L7.44309 3.97192ZM11 5.25081L11.5725 4.76636L11.0971 4.20442L10.5263 4.66932L11 5.25081ZM16.5 11.7508L15.9275 12.2353C16.07 12.4037 16.2794 12.5008 16.5 12.5008V11.7508ZM7.44309 6.38047L8.00382 5.88239L8.00382 5.88239L7.44309 6.38047ZM9.35195 6.59326L9.80215 7.19311C9.81009 7.18714 9.81791 7.18103 9.82561 7.17476L9.35195 6.59326ZM15.0633 1.54248L15.5112 0.940941L15.0633 1.54248ZM20 2.98465V2.23465H17V2.98465V3.73465H20V2.98465ZM9.31704 1.99724L8.77302 1.48097L6.89906 3.45565L7.44309 3.97192L7.98711 4.4882L9.86107 2.51351L9.31704 1.99724ZM11 5.25081L10.4275 5.73527L15.9275 12.2353L16.5 11.7508L17.0725 11.2664L11.5725 4.76636L11 5.25081ZM16.5 11.7508V12.5008H20V11.7508V11.0008H16.5V11.7508ZM7.44309 6.38047L6.88236 6.87854C7.64174 7.73345 8.87846 7.88636 9.80215 7.19311L9.35195 6.59326L8.90174 5.99341C8.62541 6.2008 8.26426 6.17559 8.00382 5.88239L7.44309 6.38047ZM7.44309 3.97192L6.88236 3.47385C6.03921 4.42305 6.03922 5.92934 6.88236 6.87854L7.44309 6.38047L8.00382 5.88239C7.66539 5.50139 7.66539 4.851 8.00382 4.47L7.44309 3.97192ZM9.35195 6.59326L9.82561 7.17476L11.4737 5.83231L11 5.25081L10.5263 4.66932L8.87828 6.01176L9.35195 6.59326ZM17 2.98465L17.4479 2.38311L15.5112 0.940941L15.0633 1.54248L14.6154 2.14402L16.5521 3.5862L17 2.98465ZM12.2185 0.750696V1.5007H12.6743V0.750696V0.000695705H12.2185V0.750696ZM15.0633 1.54248L15.5112 0.940941C14.6914 0.33044 13.6965 0.000695705 12.6743 0.000695705V0.750696V1.5007C13.3737 1.5007 14.0544 1.72631 14.6154 2.14402L15.0633 1.54248ZM9.31704 1.99724L9.86107 2.51351C10.4747 1.86688 11.327 1.5007 12.2185 1.5007V0.750696V0.000695705C10.9156 0.000695705 9.66989 0.535884 8.77302 1.48097L9.31704 1.99724Z" fill="var(--stroke-0, black)" style="fill:black;fill-opacity:1;"/>
</g>
</svg>
