<svg preserveAspectRatio="none" width="100%" height="100%" overflow="visible" style="display: block;" viewBox="0 0 19.5 19.5" fill="none" xmlns="http://www.w3.org/2000/svg">
<g id="elements">
<path id="Rectangle 2345" d="M18.75 0.75V18.75H0.75V0.75H18.75Z" stroke="var(--stroke-0, black)" style="stroke:black;stroke-opacity:1;" stroke-width="1.5" stroke-linejoin="round"/>
<path id="Star 9" d="M9.7498 4.75L10.3976 4.37209C10.2632 4.14168 10.0166 4 9.7498 4C9.48305 4 9.23637 4.14168 9.10197 4.37209L9.7498 4.75ZM11.4998 7.75L10.852 8.1279L11.0108 8.40015L11.3164 8.47722L11.4998 7.75ZM14.7498 8.56965L15.3002 9.07917C15.48 8.88488 15.5441 8.61015 15.4688 8.35632C15.3935 8.10249 15.1899 7.90717 14.9332 7.84243L14.7498 8.56965ZM12.4998 11L11.9494 10.4905L11.6818 10.7796L11.7679 11.164L12.4998 11ZM13.34 14.75L13.0508 15.442C13.3096 15.5501 13.607 15.5049 13.8218 15.3247C14.0367 15.1446 14.1331 14.8596 14.0718 14.586L13.34 14.75ZM9.7498 13.25L10.0389 12.558L9.7498 12.4372L9.46067 12.558L9.7498 13.25ZM6.15963 14.75L5.42777 14.586C5.36647 14.8596 5.46291 15.1446 5.67778 15.3247C5.89264 15.5049 6.19005 15.5501 6.44876 15.442L6.15963 14.75ZM6.9998 11L7.73166 11.164L7.81778 10.7796L7.55016 10.4905L6.9998 11ZM4.7498 8.56965L4.56639 7.84243C4.30966 7.90717 4.10609 8.10249 4.03078 8.35632C3.95547 8.61015 4.01957 8.88488 4.19944 9.07917L4.7498 8.56965ZM7.9998 7.75L8.18321 8.47722L8.48882 8.40015L8.64763 8.1279L7.9998 7.75ZM9.7498 4.75L9.10197 5.1279L10.852 8.1279L11.4998 7.75L12.1476 7.37209L10.3976 4.37209L9.7498 4.75ZM11.4998 7.75L11.3164 8.47722L14.5664 9.29688L14.7498 8.56965L14.9332 7.84243L11.6832 7.02277L11.4998 7.75ZM14.7498 8.56965L14.1994 8.06014L11.9494 10.4905L12.4998 11L13.0502 11.5095L15.3002 9.07917L14.7498 8.56965ZM12.4998 11L11.7679 11.164L12.6081 14.914L13.34 14.75L14.0718 14.586L13.2317 10.836L12.4998 11ZM13.34 14.75L13.6291 14.058L10.0389 12.558L9.7498 13.25L9.46067 13.942L13.0508 15.442L13.34 14.75ZM9.7498 13.25L9.46067 12.558L5.8705 14.058L6.15963 14.75L6.44876 15.442L10.0389 13.942L9.7498 13.25ZM6.15963 14.75L6.89149 14.914L7.73166 11.164L6.9998 11L6.26794 10.836L5.42777 14.586L6.15963 14.75ZM6.9998 11L7.55016 10.4905L5.30016 8.06014L4.7498 8.56965L4.19944 9.07917L6.44944 11.5095L6.9998 11ZM4.7498 8.56965L4.93321 9.29688L8.18321 8.47722L7.9998 7.75L7.81639 7.02277L4.56639 7.84243L4.7498 8.56965ZM7.9998 7.75L8.64763 8.1279L10.3976 5.1279L9.7498 4.75L9.10197 4.37209L7.35197 7.37209L7.9998 7.75Z" fill="var(--stroke-0, black)" style="fill:black;fill-opacity:1;"/>
</g>
</svg>
